<mxfile host="app.diagrams.net" agent="Mozilla/5.0 (Macintosh; Intel Mac OS X 10_15_7) AppleWebKit/537.36 (KHTML, like Gecko) Chrome/139.0.0.0 Safari/537.36" version="28.1.1">
  <diagram name="Page-1" id="K1zOvUCSgUelLYMQg9z7">
    <mxGraphModel dx="1426" dy="1827" grid="1" gridSize="10" guides="1" tooltips="1" connect="1" arrows="1" fold="1" page="1" pageScale="1" pageWidth="850" pageHeight="1100" math="0" shadow="0">
      <root>
        <mxCell id="0" />
        <mxCell id="1" parent="0" />
        <mxCell id="1Q-obEdJ-UqBJn5olbAf-37" value="" style="rounded=1;whiteSpace=wrap;html=1;" vertex="1" parent="1">
          <mxGeometry x="10" y="20" width="810" height="1310" as="geometry" />
        </mxCell>
        <mxCell id="1Q-obEdJ-UqBJn5olbAf-39" value="" style="edgeStyle=orthogonalEdgeStyle;rounded=0;orthogonalLoop=1;jettySize=auto;html=1;" edge="1" parent="1" source="1Q-obEdJ-UqBJn5olbAf-24" target="1Q-obEdJ-UqBJn5olbAf-38">
          <mxGeometry relative="1" as="geometry" />
        </mxCell>
        <mxCell id="1Q-obEdJ-UqBJn5olbAf-24" value="" style="rounded=0;whiteSpace=wrap;html=1;" vertex="1" parent="1">
          <mxGeometry x="40" y="680" width="360" height="480" as="geometry" />
        </mxCell>
        <mxCell id="1Q-obEdJ-UqBJn5olbAf-33" value="" style="rounded=1;whiteSpace=wrap;html=1;" vertex="1" parent="1">
          <mxGeometry x="80" y="720" width="200" height="360" as="geometry" />
        </mxCell>
        <mxCell id="1Q-obEdJ-UqBJn5olbAf-35" value="" style="edgeStyle=orthogonalEdgeStyle;rounded=0;orthogonalLoop=1;jettySize=auto;html=1;" edge="1" parent="1" source="1Q-obEdJ-UqBJn5olbAf-11" target="1Q-obEdJ-UqBJn5olbAf-33">
          <mxGeometry relative="1" as="geometry" />
        </mxCell>
        <mxCell id="1Q-obEdJ-UqBJn5olbAf-11" value="" style="rounded=0;whiteSpace=wrap;html=1;" vertex="1" parent="1">
          <mxGeometry x="40" y="90" width="420" height="550" as="geometry" />
        </mxCell>
        <mxCell id="1Q-obEdJ-UqBJn5olbAf-19" value="" style="rounded=1;whiteSpace=wrap;html=1;" vertex="1" parent="1">
          <mxGeometry x="50" y="120" width="330" height="450" as="geometry" />
        </mxCell>
        <mxCell id="1Q-obEdJ-UqBJn5olbAf-3" style="edgeStyle=orthogonalEdgeStyle;rounded=0;orthogonalLoop=1;jettySize=auto;html=1;entryX=0.5;entryY=0;entryDx=0;entryDy=0;" edge="1" parent="1" source="1Q-obEdJ-UqBJn5olbAf-1" target="1Q-obEdJ-UqBJn5olbAf-2">
          <mxGeometry relative="1" as="geometry" />
        </mxCell>
        <mxCell id="1Q-obEdJ-UqBJn5olbAf-1" value="User" style="rounded=0;whiteSpace=wrap;html=1;" vertex="1" parent="1">
          <mxGeometry x="620" y="-380" width="120" height="60" as="geometry" />
        </mxCell>
        <mxCell id="1Q-obEdJ-UqBJn5olbAf-13" value="" style="edgeStyle=orthogonalEdgeStyle;rounded=0;orthogonalLoop=1;jettySize=auto;html=1;" edge="1" parent="1" source="1Q-obEdJ-UqBJn5olbAf-2" target="1Q-obEdJ-UqBJn5olbAf-5">
          <mxGeometry relative="1" as="geometry" />
        </mxCell>
        <mxCell id="1Q-obEdJ-UqBJn5olbAf-2" value="Goal Agent&amp;nbsp;" style="rounded=0;whiteSpace=wrap;html=1;" vertex="1" parent="1">
          <mxGeometry x="130" y="150" width="120" height="60" as="geometry" />
        </mxCell>
        <mxCell id="1Q-obEdJ-UqBJn5olbAf-4" value="User requirement or user data to generate a meal plan" style="text;html=1;align=center;verticalAlign=middle;resizable=0;points=[];autosize=1;strokeColor=none;fillColor=none;" vertex="1" parent="1">
          <mxGeometry x="240" y="-390" width="310" height="30" as="geometry" />
        </mxCell>
        <mxCell id="1Q-obEdJ-UqBJn5olbAf-14" value="" style="edgeStyle=orthogonalEdgeStyle;rounded=0;orthogonalLoop=1;jettySize=auto;html=1;" edge="1" parent="1" source="1Q-obEdJ-UqBJn5olbAf-5" target="1Q-obEdJ-UqBJn5olbAf-6">
          <mxGeometry relative="1" as="geometry" />
        </mxCell>
        <mxCell id="1Q-obEdJ-UqBJn5olbAf-5" value="Activity agent" style="rounded=0;whiteSpace=wrap;html=1;" vertex="1" parent="1">
          <mxGeometry x="130" y="240" width="120" height="60" as="geometry" />
        </mxCell>
        <mxCell id="1Q-obEdJ-UqBJn5olbAf-16" value="" style="edgeStyle=orthogonalEdgeStyle;rounded=0;orthogonalLoop=1;jettySize=auto;html=1;" edge="1" parent="1" source="1Q-obEdJ-UqBJn5olbAf-6" target="1Q-obEdJ-UqBJn5olbAf-8">
          <mxGeometry relative="1" as="geometry" />
        </mxCell>
        <mxCell id="1Q-obEdJ-UqBJn5olbAf-6" value="Preference Agent&amp;nbsp;" style="rounded=0;whiteSpace=wrap;html=1;" vertex="1" parent="1">
          <mxGeometry x="130" y="330" width="120" height="60" as="geometry" />
        </mxCell>
        <mxCell id="1Q-obEdJ-UqBJn5olbAf-9" style="edgeStyle=orthogonalEdgeStyle;rounded=0;orthogonalLoop=1;jettySize=auto;html=1;entryX=0.5;entryY=1;entryDx=0;entryDy=0;" edge="1" parent="1" source="1Q-obEdJ-UqBJn5olbAf-8" target="1Q-obEdJ-UqBJn5olbAf-1">
          <mxGeometry relative="1" as="geometry" />
        </mxCell>
        <mxCell id="1Q-obEdJ-UqBJn5olbAf-8" value="user proxy agent&amp;nbsp;" style="rounded=0;whiteSpace=wrap;html=1;" vertex="1" parent="1">
          <mxGeometry x="130" y="430" width="120" height="60" as="geometry" />
        </mxCell>
        <mxCell id="1Q-obEdJ-UqBJn5olbAf-10" value="Ask User for approval or and follow up Questions&amp;nbsp;" style="text;html=1;align=center;verticalAlign=middle;resizable=0;points=[];autosize=1;strokeColor=none;fillColor=none;" vertex="1" parent="1">
          <mxGeometry x="330" y="430" width="290" height="30" as="geometry" />
        </mxCell>
        <mxCell id="1Q-obEdJ-UqBJn5olbAf-12" value="Selector group Chat :Select the require Agent&lt;div&gt;&amp;nbsp;to perform the task.&lt;/div&gt;&lt;div&gt;&lt;br&gt;&lt;/div&gt;" style="text;html=1;align=center;verticalAlign=middle;resizable=0;points=[];autosize=1;strokeColor=none;fillColor=none;" vertex="1" parent="1">
          <mxGeometry x="90" y="500" width="270" height="60" as="geometry" />
        </mxCell>
        <mxCell id="1Q-obEdJ-UqBJn5olbAf-21" value="SOM - Dietary Goals" style="text;html=1;align=center;verticalAlign=middle;resizable=0;points=[];autosize=1;strokeColor=none;fillColor=none;" vertex="1" parent="1">
          <mxGeometry x="50" y="90" width="130" height="30" as="geometry" />
        </mxCell>
        <mxCell id="1Q-obEdJ-UqBJn5olbAf-22" value="Summarised Dietry Goals&amp;nbsp;" style="text;html=1;align=center;verticalAlign=middle;resizable=0;points=[];autosize=1;strokeColor=none;fillColor=none;" vertex="1" parent="1">
          <mxGeometry x="50" y="588" width="160" height="30" as="geometry" />
        </mxCell>
        <mxCell id="1Q-obEdJ-UqBJn5olbAf-31" value="" style="edgeStyle=orthogonalEdgeStyle;rounded=0;orthogonalLoop=1;jettySize=auto;html=1;" edge="1" parent="1" source="1Q-obEdJ-UqBJn5olbAf-25" target="1Q-obEdJ-UqBJn5olbAf-26">
          <mxGeometry relative="1" as="geometry" />
        </mxCell>
        <mxCell id="1Q-obEdJ-UqBJn5olbAf-25" value="&lt;div&gt;Meal Suggestion Agent&lt;/div&gt;" style="whiteSpace=wrap;html=1;aspect=fixed;" vertex="1" parent="1">
          <mxGeometry x="125" y="750" width="80" height="80" as="geometry" />
        </mxCell>
        <mxCell id="1Q-obEdJ-UqBJn5olbAf-32" value="" style="edgeStyle=orthogonalEdgeStyle;rounded=0;orthogonalLoop=1;jettySize=auto;html=1;" edge="1" parent="1" source="1Q-obEdJ-UqBJn5olbAf-26" target="1Q-obEdJ-UqBJn5olbAf-28">
          <mxGeometry relative="1" as="geometry" />
        </mxCell>
        <mxCell id="1Q-obEdJ-UqBJn5olbAf-26" value="&lt;div&gt;Nutrition balence Agent&lt;/div&gt;" style="whiteSpace=wrap;html=1;aspect=fixed;" vertex="1" parent="1">
          <mxGeometry x="125" y="860" width="80" height="80" as="geometry" />
        </mxCell>
        <mxCell id="1Q-obEdJ-UqBJn5olbAf-27" value="SOM Summariser&amp;nbsp;" style="text;html=1;align=center;verticalAlign=middle;resizable=0;points=[];autosize=1;strokeColor=none;fillColor=none;" vertex="1" parent="1">
          <mxGeometry x="50" y="690" width="120" height="30" as="geometry" />
        </mxCell>
        <mxCell id="1Q-obEdJ-UqBJn5olbAf-28" value="&lt;div&gt;User proxy agent&amp;nbsp;&lt;/div&gt;" style="whiteSpace=wrap;html=1;aspect=fixed;" vertex="1" parent="1">
          <mxGeometry x="125" y="980" width="80" height="80" as="geometry" />
        </mxCell>
        <mxCell id="1Q-obEdJ-UqBJn5olbAf-29" style="edgeStyle=orthogonalEdgeStyle;rounded=0;orthogonalLoop=1;jettySize=auto;html=1;entryX=0.658;entryY=1.033;entryDx=0;entryDy=0;entryPerimeter=0;" edge="1" parent="1" source="1Q-obEdJ-UqBJn5olbAf-28" target="1Q-obEdJ-UqBJn5olbAf-1">
          <mxGeometry relative="1" as="geometry" />
        </mxCell>
        <mxCell id="1Q-obEdJ-UqBJn5olbAf-30" value="Ask User for approval or and follow up Questions&amp;nbsp;" style="text;html=1;align=center;verticalAlign=middle;resizable=0;points=[];autosize=1;strokeColor=none;fillColor=none;" vertex="1" parent="1">
          <mxGeometry x="350" y="990" width="290" height="30" as="geometry" />
        </mxCell>
        <mxCell id="1Q-obEdJ-UqBJn5olbAf-34" value="Round Robin Chat" style="text;html=1;align=center;verticalAlign=middle;resizable=0;points=[];autosize=1;strokeColor=none;fillColor=none;" vertex="1" parent="1">
          <mxGeometry x="90" y="720" width="120" height="30" as="geometry" />
        </mxCell>
        <mxCell id="1Q-obEdJ-UqBJn5olbAf-36" value="Meal Plan Summariser/generator" style="text;html=1;align=center;verticalAlign=middle;resizable=0;points=[];autosize=1;strokeColor=none;fillColor=none;" vertex="1" parent="1">
          <mxGeometry x="40" y="1110" width="200" height="30" as="geometry" />
        </mxCell>
        <mxCell id="1Q-obEdJ-UqBJn5olbAf-43" style="edgeStyle=orthogonalEdgeStyle;rounded=0;orthogonalLoop=1;jettySize=auto;html=1;entryX=0.5;entryY=0;entryDx=0;entryDy=0;" edge="1" parent="1" source="1Q-obEdJ-UqBJn5olbAf-38" target="1Q-obEdJ-UqBJn5olbAf-42">
          <mxGeometry relative="1" as="geometry" />
        </mxCell>
        <mxCell id="1Q-obEdJ-UqBJn5olbAf-38" value="Summariser Agent&amp;nbsp;" style="rounded=0;whiteSpace=wrap;html=1;" vertex="1" parent="1">
          <mxGeometry x="70" y="1200" width="655" height="60" as="geometry" />
        </mxCell>
        <mxCell id="1Q-obEdJ-UqBJn5olbAf-40" value="Round Robin Chat" style="text;html=1;align=center;verticalAlign=middle;resizable=0;points=[];autosize=1;strokeColor=none;fillColor=none;" vertex="1" parent="1">
          <mxGeometry x="220" y="30" width="120" height="30" as="geometry" />
        </mxCell>
        <mxCell id="1Q-obEdJ-UqBJn5olbAf-42" value="MEAL PLAN&amp;nbsp;" style="whiteSpace=wrap;html=1;" vertex="1" parent="1">
          <mxGeometry x="207.5" y="1470" width="380" height="90" as="geometry" />
        </mxCell>
      </root>
    </mxGraphModel>
  </diagram>
</mxfile>
